# xmcd CD database file generated by OrangeCD 5.2
#
# Track frame offsets:
#	150
#	19662
#	32950
#	49047
#	63942
#	83970
#	100372
#	115495
#	128822
#	151770
#	167940
#	179860
#	194875
#	213537
#	227912
#	243885
#	257647
#
# Disc length: 3615 seconds
#
# Revision: 0
# Processed by: cddbd v1.5PL3 Copyright (c) Steve Scherf et al.
# Submitted via: OrangeCD 5.2
#
DISCID=f80e1d11
DTITLE=The Dean Brothers - Rock Bottom
DYEAR=1999
DGENRE=Country
TTITLE0=All Aboard Train Medley
TTITLE1=Honky Tonk History
TTITLE2=Hooked
TTITLE3=Straighten Up and Lie Right
TTITLE4=All The Same To You
TTITLE5=Corrine Corrina
TTITLE6=You Gonna' Miss Me
TTITLE7=Rock Bottom
TTITLE8=Sam Cooke Medley
TTITLE9=Elvis Blessed My Soul
TTITLE10=Spanish Waltzing
TTITLE11=Crying In The Rain
TTITLE12=How Can I Miss You?
TTITLE13=Can't Win For Loosing You
TTITLE14=Teardrops Will Fall
TTITLE15=These Boots Are Ready To Dance
TTITLE16=The Hucklebuck
EXTD=
EXTT0=
EXTT1=
EXTT2=
EXTT3=
EXTT4=
EXTT5=
EXTT6=
EXTT7=
EXTT8=
EXTT9=
EXTT10=
EXTT11=
EXTT12=
EXTT13=
EXTT14=
EXTT15=
EXTT16=
PLAYORDER=
